<?xml version="1.0" encoding="UTF-8" standalone="no"?>
<svg
   width="256"
   height="256"
   viewBox="0 0 256 256"
   version="1.1"
   id="svg4"
   sodipodi:docname="icon_c4.svg"
   inkscape:version="1.1.2 (b8e25be833, 2022-02-05)"
   xmlns:inkscape="http://www.inkscape.org/namespaces/inkscape"
   xmlns:sodipodi="http://sodipodi.sourceforge.net/DTD/sodipodi-0.dtd"
   xmlns="http://www.w3.org/2000/svg"
   xmlns:svg="http://www.w3.org/2000/svg">
  <defs
     id="defs8" />
  <sodipodi:namedview
     id="namedview6"
     pagecolor="#ffffff"
     bordercolor="#666666"
     borderopacity="1.0"
     inkscape:pageshadow="2"
     inkscape:pageopacity="0.0"
     inkscape:pagecheckerboard="0"
     showgrid="true"
     inkscape:zoom="4.5906698"
     inkscape:cx="116.43181"
     inkscape:cy="125.90755"
     inkscape:window-width="1920"
     inkscape:window-height="1017"
     inkscape:window-x="-8"
     inkscape:window-y="-8"
     inkscape:window-maximized="1"
     inkscape:current-layer="svg4">
    <inkscape:grid
       type="xygrid"
       id="grid2857" />
  </sodipodi:namedview>
  <rect
     style="fill:#e6e6e6"
     id="rect844"
     width="180"
     height="110"
     x="40"
     y="70" />
  <path
     d="M 40,70 V 180 H 220 V 70 m -84.52536,14.023336 c -1.584,0.929 -1.749,3.132 -1.735,23.226994 0.009,12.21 0.376,22.768 0.817,23.463 0.627,0.987 8.553,1.205 36.235,1 l 35.433,-0.263 v -24 -23.999994 l -34.5,-0.227 c -22.204,-0.146 -35.124,0.139 -36.25,0.8 m 13.25,20.926994 c 0,0.55 -0.808,1 -1.796,1 -1.309,0 -1.78,0.747 -1.734,2.75 0.045,1.975 0.552,2.711 1.796,2.611 0.954,-0.076 1.734,0.261 1.734,0.75 0,0.489 0.702,0.889 1.559,0.889 0.857,0 1.307,-0.408 0.999,-0.907 -0.309,-0.498 0.277,-0.687 1.301,-0.42 1.538,0.403 1.843,-0.057 1.752,-2.642 -0.089,-2.513 -0.471,-3.035 -1.94,-2.653 -1.28,0.333 -1.665,0.048 -1.281,-0.951 0.321,-0.837 -0.06,-1.427 -0.921,-1.427 -0.808,0 -1.469,0.45 -1.469,1 m 11.966,0.282 c -2.494,1.98 -2.323,6.391 0.274,7.071 4.111,1.074 6.629,-0.252 6.538,-3.444 -0.051,-1.794 -0.621,-2.909 -1.489,-2.909 -0.774,0 -1.129,-0.45 -0.789,-1 0.87,-1.408 -2.684,-1.188 -4.534,0.282 m 14.034,-0.282 c 0,0.55 -0.562,1.001 -1.25,1.002 -0.702,0.002 -1.298,1.339 -1.359,3.053 -0.078,2.188 0.275,2.903 1.25,2.529 0.747,-0.287 1.359,-0.085 1.359,0.447 0,0.533 0.675,0.969 1.5,0.969 0.825,0 1.5,-0.4 1.5,-0.889 0,-0.489 0.739,-0.826 1.642,-0.75 0.904,0.077 1.862,-0.486 2.13,-1.25 0.297,-0.848 0.047,-1.117 -0.642,-0.691 -0.622,0.384 -1.13,0.221 -1.13,-0.361 0,-0.582 0.45,-1.059 1,-1.059 0.55,0 1,-0.45 1,-1 0,-0.55 -0.9,-1 -2,-1 -1.1,0 -2,-0.45 -2,-1 0,-0.55 -0.675,-1 -1.5,-1 -0.825,0 -1.5,0.45 -1.5,1 m -75.888005,28.558 c -2.262,3.607 -4.112,6.741 -4.112,6.964 0,0.224 -2.025,3.743 -4.5,7.819 -2.475,4.077 -4.5,8.593 -4.5,10.036 v 2.623 h 10 10.000005 v 5.5 5.5 h 5 5 v -5.5 c 0,-5.444 0.03,-5.5 3,-5.5 2.762,0 3,-0.278 3,-3.5 0,-3.222 -0.238,-3.5 -3,-3.5 h -3 v -13.5 -13.5 h -6.388 -6.389 l -4.111005,6.558 m 1.887995,9.554 c -2.474995,4.97 -4.649995,9.453 -4.832995,9.962 -0.184,0.51 1.954,0.926 4.749995,0.926 h 5.08301 v -6.875 c 0,-3.781 0.281,-8.281 0.625,-10 1.107,-5.533 -1.011,-3.279 -5.62501,5.987 m -36.100995,-3.016 c -6.072,2.679 -8.899,7.549 -8.899,15.33 0,10.862 6.542,17.593 17.066,17.56 7.5,-0.023 8.934,-0.761 8.934,-4.603 v -3.383 h -5.577 c -4.831,0 -5.968,-0.391 -8.5,-2.923 -4.054,-4.055 -3.991,-8.791 0.181,-13.542 2.741,-3.122 3.662,-3.535 7.891,-3.535 4.348,0 4.849,-0.244 5.455,-2.655 0.433,-1.726 0.208,-2.946 -0.642,-3.485 -2.396,-1.519 -11.22,-0.834 -15.909,1.236 m 71.165005,0.326 c -0.66,0.796 -1.044,3.549 -0.872,6.25 l 0.308,4.828 h 6.5 6.5 l 0.308,-4.828 c 0.399,-6.25 -0.863,-7.672 -6.808,-7.672 -2.891,0 -5.218,0.557 -5.936,1.422 m 18.936,5.126 v 6.547 l 6.25,-0.297 6.25,-0.298 0.32,-3.905 c 0.175,-2.147 0.054,-4.96 -0.269,-6.25 -0.536,-2.133 -1.13,-2.345 -6.57,-2.345 h -5.981 v 6.548 m 19.571,-4.977 c -1.663,1.664 -2.107,8.035 -0.713,10.234 0.567,0.894 2.686,1.208 6.735,1 l 5.907,-0.305 0.308,-5.405 c 0.207,-3.648 -0.118,-5.675 -1,-6.235 -2.256,-1.431 -9.557,-0.968 -11.237,0.711 m 19.139,-0.948 c -0.39,0.391 -0.71,3.335 -0.71,6.544 v 5.833 h 6.548 6.547 l -0.297,-6.25 -0.298,-6.25 -5.54,-0.294 c -3.047,-0.161 -5.859,0.026 -6.25,0.417 m -57.46,20.039 c -1.79,0.723 -1.652,10.759 0.169,12.271 0.817,0.678 3.679,1.048 6.75,0.872 l 5.331,-0.305 0.31,-5.47 c 0.243,-4.298 -0.065,-5.743 -1.441,-6.75 -1.705,-1.246 -8.61,-1.63 -11.119,-0.618 m 19.203,1.668 c -0.321,1.282 -0.442,4.319 -0.269,6.75 l 0.316,4.42 5.405,0.308 c 6.256,0.356 7.057,-0.378 7.08,-6.487 0.02,-5.443 -1.913,-7.321 -7.537,-7.321 -3.784,0 -4.493,0.331 -4.995,2.33 m 19.118,-0.759 c -1.678,1.679 -2.142,8.981 -0.713,11.234 0.567,0.894 2.686,1.208 6.735,1 l 5.907,-0.305 0.305,-5.331 c 0.176,-3.071 -0.194,-5.933 -0.872,-6.75 -1.618,-1.949 -9.364,-1.845 -11.362,0.152 m 19.496,-0.152 c -0.678,0.817 -1.048,3.679 -0.872,6.75 l 0.305,5.331 h 6 6 l 0.31,-5.47 c 0.243,-4.298 -0.065,-5.743 -1.441,-6.75 -2.347,-1.716 -8.835,-1.629 -10.302,0.139"
     stroke="none"
     fill-rule="evenodd"
     id="path2"
     sodipodi:nodetypes="ccccccccccccccsccsscccccsccccsccccccssscccssssssccscscccccccssssccccccccscscccscscsccscccccccccscccccccsccccccccccscccccccccccccccccccsccsccccccccccccc"
     style="fill:#aa8800" />
</svg>
