<?xml version="1.0" encoding="UTF-8" standalone="no"?>
<svg
   viewBox="0 0 28.464 33.622"
   version="1.1"
   id="svg8"
   sodipodi:docname="flashbang.svg"
   inkscape:version="1.1.2 (b8e25be833, 2022-02-05)"
   xmlns:inkscape="http://www.inkscape.org/namespaces/inkscape"
   xmlns:sodipodi="http://sodipodi.sourceforge.net/DTD/sodipodi-0.dtd"
   xmlns="http://www.w3.org/2000/svg"
   xmlns:svg="http://www.w3.org/2000/svg">
  <defs
     id="defs12" />
  <sodipodi:namedview
     id="namedview10"
     pagecolor="#ffffff"
     bordercolor="#666666"
     borderopacity="1.0"
     inkscape:pageshadow="2"
     inkscape:pageopacity="0.0"
     inkscape:pagecheckerboard="0"
     showgrid="false"
     inkscape:zoom="24.715959"
     inkscape:cx="14.221581"
     inkscape:cy="16.831231"
     inkscape:window-width="1920"
     inkscape:window-height="1017"
     inkscape:window-x="-8"
     inkscape:window-y="-8"
     inkscape:window-maximized="1"
     inkscape:current-layer="svg8" />
  <path
     fill-opacity="0.4"
     d="m 11.223,19.97 -10.424,5.6127 7.3499,-9.889 -8.1517,-2.5391 8.419,-1.4032 -5.6795,-11.092 10.023,7.4836 2.5391,-8.1517 1.4032,8.3522 10.891,-5.479 -7.2163,9.889 8.0849,2.7395 -8.6194,1.2695 5.6795,10.958 -11.626,-8.8199 z"
     id="path2"
     style="fill:#cccccc" />
  <path
     d="m 11.643,33.52 c -1.8201,-0.45322 -2.1832,-1.3512 -1.125,-2.7825 0.57804,-0.78184 0.59462,-0.98237 0.58861,-7.1188 -0.006,-6.1586 -0.0207,-6.3298 -0.5948,-6.9409 -1.1152,-1.1871 -0.47918,-3.106 1.0295,-3.106 0.52844,0 0.76318,-0.52693 0.76318,-1.7131 0,-0.53468 -0.15466,-0.93545 -0.39687,-1.0284 -0.62569,-0.2401 -0.46344,-0.95045 0.28181,-1.2338 0.37327,-0.14192 1.3258,-0.25803 2.1167,-0.25803 1.4214,0 1.438,-0.009 1.438,-0.79375 0,-0.52917 0.13229,-0.79375 0.39687,-0.79375 0.21828,0 0.39697,0.20836 0.39709,0.46302 2.9e-4,0.61663 1.2474,3.215 2.6054,5.4286 l 1.0986,1.7906 v 5.5423 c 0,5.2087 -0.0308,5.5588 -0.51177,5.8162 -0.28147,0.15064 -0.66843,0.26449 -0.8599,0.253 -0.19146,-0.0115 -0.0207,-0.14047 0.37949,-0.28663 l 0.7276,-0.26575 v -10.688 l -1.5875,-1.5709 c -1.0423,-1.0314 -1.5875,-1.418 -1.5875,-1.1255 0,0.24499 0.23812,0.57287 0.52917,0.72863 0.65368,0.34984 0.71924,1.8452 0.12094,2.7583 -0.47385,0.72318 -0.7126,3.9855 -0.69682,9.5215 0.009,3.2969 0.0676,3.758 0.55777,4.4211 0.64383,0.87083 0.71426,2.1458 0.14465,2.6185 -0.41063,0.34079 -4.8041,0.61603 -5.8151,0.3643 z"
     id="path4"
     style="fill:#ffffff" />
</svg>
